<svg xmlns="http://www.w3.org/2000/svg" viewBox="0 0 12 12">
  <g fill="none" fill-rule="evenodd">
    <path d="M.667.706h10.666V12H.667z" />
    <path
      d="M9.368 5.61 5.54 9.437c-.735.735-1.945.717-2.702-.04-.758-.758-.776-1.968-.04-2.703l4.159-4.16c.46-.459 1.216-.447 1.689.026s.484 1.23.025 1.689L5.178 7.743a.48.48 0 0 1-.675-.01.48.48 0 0 1-.01-.676l3.16-3.161-.514-.514-3.16 3.16c-.46.46-.449 1.217.024 1.69s1.23.484 1.69.025l3.493-3.494c.736-.735.718-1.945-.04-2.702-.758-.758-1.967-.776-2.702-.04L2.284 6.18c-1.011 1.011-.987 2.673.056 3.716 1.042 1.042 2.704 1.067 3.715.055l3.827-3.827z"
      fill="currentColor"
    />
  </g>
</svg>
